# MagicaVoxel @ Ephtracy

# group
o 

# material
mtllib famling1-talk.vox.mtl
usemtl palette

# normals
vn -1 0 0
vn 1 0 0
vn 0 0 1
vn 0 0 -1
vn 0 -1 0
vn 0 1 0

# texcoords
vt 0.0332031 0.5
vt 0.0996094 0.5
vt 0.306641 0.5
vt 0.537109 0.5
vt 0.666016 0.5
vt 0.689453 0.5
vt 0.837891 0.5
vt 0.857422 0.5
vt 0.958984 0.5

# verts
v -0.5 0.3 0
v -0.5 0.3 -0.2
v -0.5 0.5 0
v -0.5 0.5 -0.2
v -0.5 0.6 0
v -0.5 0.6 -0.2
v -0.4 0.6 0
v -0.4 0.6 -0.2
v -0.4 0.7 0
v -0.4 0.7 -0.2
v -0.3 0 0.2
v -0.3 0 -0.2
v -0.3 0.1 0.2
v -0.3 0.1 0
v -0.3 0.1 -0.2
v -0.3 0.2 0
v -0.3 0.2 -0.2
v -0.3 0.3 0.1
v -0.3 0.3 0
v -0.3 0.3 -0.2
v -0.3 0.3 -0.3
v -0.3 0.4 0.1
v -0.3 0.4 -0.3
v -0.3 0.6 0
v -0.3 0.6 -0.2
v -0.3 0.7 0.1
v -0.3 0.7 0
v -0.3 0.7 -0.2
v -0.3 0.7 -0.3
v -0.3 0.9 -0.1
v -0.3 0.9 -0.3
v -0.3 1 -0.3
v -0.3 1 -0.4
v -0.3 1.1 0
v -0.3 1.1 -0.1
v -0.3 1.1 -0.2
v -0.3 1.1 -0.3
v -0.3 1.2 -0.1
v -0.3 1.2 -0.2
v -0.3 1.3 0.1
v -0.3 1.3 0
v -0.3 1.3 -0.3
v -0.3 1.3 -0.4
v -0.3 1.4 0.1
v -0.3 1.4 0
v -0.3 1.4 -0.2
v -0.3 1.4 -0.3
v -0.3 1.5 0
v -0.3 1.5 -0.1
v -0.3 1.5 -0.2
v -0.2 0.7 0
v -0.2 0.7 -0.1
v -0.2 0.8 -0.1
v -0.2 0.8 -0.3
v -0.2 0.9 -0.1
v -0.2 0.9 -0.3
v -0.2 1.1 0
v -0.2 1.1 -0.1
v -0.1 0.7 -0.1
v -0.1 0.7 -0.2
v -0.1 0.8 -0.1
v -0.1 0.8 -0.2
v -0.1 1 0.1
v -0.1 1 0
v -0.1 1.1 0.1
v -0.1 1.1 0
v 0.1 0 0.2
v 0.1 0 -0.2
v 0.1 0.1 0.2
v 0.1 0.1 0
v 0.1 0.1 -0.2
v 0.1 0.2 0
v 0.1 0.2 -0.2
v 0.1 0.3 0
v 0.1 0.3 -0.2
v 0.1 0.4 0
v 0.1 0.4 -0.2
v 0.1 1.3 0.1
v 0.1 1.3 0
v 0.1 1.4 0.1
v 0.1 1.4 0
v 0.4 0.3 0
v 0.4 0.3 -0.2
v 0.4 0.5 0
v 0.4 0.5 -0.2
v 0.4 0.6 0
v 0.4 0.6 -0.2
v -0.4 0.3 0
v -0.4 0.3 -0.2
v -0.4 0.5 0
v -0.4 0.5 -0.2
v -0.4 0.6 0
v -0.4 0.6 -0.2
v -0.1 0 0.2
v -0.1 0 -0.2
v -0.1 0.1 0.2
v -0.1 0.1 0
v -0.1 0.1 -0.2
v -0.1 0.2 0
v -0.1 0.2 -0.2
v -0.1 0.3 0
v -0.1 0.3 -0.2
v -0.1 0.4 0
v -0.1 0.4 -0.2
v -0.1 1.3 0.1
v -0.1 1.3 0
v -0.1 1.4 0.1
v -0.1 1.4 0
v 0.1 0.7 -0.1
v 0.1 0.7 -0.2
v 0.1 0.8 -0.1
v 0.1 0.8 -0.2
v 0.1 1 0.1
v 0.1 1 0
v 0.1 1.1 0.1
v 0.1 1.1 0
v 0.2 0.7 0
v 0.2 0.7 -0.1
v 0.2 0.8 -0.1
v 0.2 0.8 -0.3
v 0.2 0.9 -0.1
v 0.2 0.9 -0.3
v 0.2 1.1 0
v 0.2 1.1 -0.1
v 0.3 0 0.2
v 0.3 0 -0.2
v 0.3 0.1 0.2
v 0.3 0.1 0
v 0.3 0.1 -0.2
v 0.3 0.2 0
v 0.3 0.2 -0.2
v 0.3 0.3 0.1
v 0.3 0.3 0
v 0.3 0.3 -0.2
v 0.3 0.3 -0.3
v 0.3 0.4 0.1
v 0.3 0.4 -0.3
v 0.3 0.6 0
v 0.3 0.6 -0.2
v 0.3 0.7 0.1
v 0.3 0.7 0
v 0.3 0.7 -0.2
v 0.3 0.7 -0.3
v 0.3 0.9 -0.1
v 0.3 0.9 -0.3
v 0.3 1 -0.3
v 0.3 1 -0.4
v 0.3 1.1 0
v 0.3 1.1 -0.1
v 0.3 1.1 -0.2
v 0.3 1.1 -0.3
v 0.3 1.2 -0.1
v 0.3 1.2 -0.2
v 0.3 1.3 0.1
v 0.3 1.3 0
v 0.3 1.3 -0.3
v 0.3 1.3 -0.4
v 0.3 1.4 0.1
v 0.3 1.4 0
v 0.3 1.4 -0.2
v 0.3 1.4 -0.3
v 0.3 1.5 0
v 0.3 1.5 -0.1
v 0.3 1.5 -0.2
v 0.4 0.6 0
v 0.4 0.6 -0.2
v 0.4 0.7 0
v 0.4 0.7 -0.2
v 0.5 0.3 0
v 0.5 0.3 -0.2
v 0.5 0.5 0
v 0.5 0.5 -0.2
v 0.5 0.6 0
v 0.5 0.6 -0.2
v -0.3 0 0.2
v -0.3 0.1 0.2
v -0.1 0 0.2
v -0.1 0.1 0.2
v 0.1 0 0.2
v 0.1 0.1 0.2
v 0.3 0 0.2
v 0.3 0.1 0.2
v -0.3 0.3 0.1
v -0.3 0.4 0.1
v -0.3 0.7 0.1
v -0.3 1.3 0.1
v -0.3 1.4 0.1
v -0.1 1 0.1
v -0.1 1.1 0.1
v -0.1 1.3 0.1
v -0.1 1.4 0.1
v 0.1 1 0.1
v 0.1 1.1 0.1
v 0.1 1.3 0.1
v 0.1 1.4 0.1
v 0.3 0.3 0.1
v 0.3 0.4 0.1
v 0.3 0.7 0.1
v 0.3 1.3 0.1
v 0.3 1.4 0.1
v -0.5 0.3 0
v -0.5 0.5 0
v -0.5 0.6 0
v -0.4 0.3 0
v -0.4 0.5 0
v -0.4 0.6 0
v -0.4 0.7 0
v -0.3 0.1 0
v -0.3 0.2 0
v -0.3 0.3 0
v -0.3 0.6 0
v -0.3 0.7 0
v -0.3 1.1 0
v -0.3 1.3 0
v -0.3 1.4 0
v -0.3 1.5 0
v -0.2 0.7 0
v -0.2 1.1 0
v -0.2 1.2 0
v -0.2 1.3 0
v -0.1 0.1 0
v -0.1 0.2 0
v -0.1 0.3 0
v -0.1 0.8 0
v -0.1 0.9 0
v -0.1 1 0
v -0.1 1.1 0
v -0.1 1.2 0
v -0.1 1.3 0
v -0.1 1.4 0
v 0.1 0.1 0
v 0.1 0.2 0
v 0.1 0.3 0
v 0.1 0.8 0
v 0.1 0.9 0
v 0.1 1 0
v 0.1 1.1 0
v 0.1 1.2 0
v 0.1 1.3 0
v 0.1 1.4 0
v 0.2 0.7 0
v 0.2 1.1 0
v 0.2 1.2 0
v 0.2 1.3 0
v 0.3 0.1 0
v 0.3 0.2 0
v 0.3 0.3 0
v 0.3 0.6 0
v 0.3 0.7 0
v 0.3 1.1 0
v 0.3 1.3 0
v 0.3 1.4 0
v 0.3 1.5 0
v 0.4 0.3 0
v 0.4 0.5 0
v 0.4 0.6 0
v 0.4 0.7 0
v 0.5 0.3 0
v 0.5 0.5 0
v 0.5 0.6 0
v -0.3 0.9 -0.1
v -0.3 1.1 -0.1
v -0.2 0.9 -0.1
v -0.2 1.1 -0.1
v 0.2 0.9 -0.1
v 0.2 1.1 -0.1
v 0.3 0.9 -0.1
v 0.3 1.1 -0.1
v -0.1 0.3 -0.2
v -0.1 0.4 -0.2
v 0.1 0.3 -0.2
v 0.1 0.4 -0.2
v -0.1 0.3 0
v -0.1 0.4 0
v 0.1 0.3 0
v 0.1 0.4 0
v -0.2 0.7 -0.1
v -0.2 0.8 -0.1
v -0.1 0.7 -0.1
v -0.1 0.8 -0.1
v 0.1 0.7 -0.1
v 0.1 0.8 -0.1
v 0.2 0.7 -0.1
v 0.2 0.8 -0.1
v -0.5 0.3 -0.2
v -0.5 0.5 -0.2
v -0.5 0.6 -0.2
v -0.4 0.3 -0.2
v -0.4 0.5 -0.2
v -0.4 0.6 -0.2
v -0.4 0.7 -0.2
v -0.3 0 -0.2
v -0.3 0.1 -0.2
v -0.3 0.2 -0.2
v -0.3 0.3 -0.2
v -0.3 0.6 -0.2
v -0.3 0.7 -0.2
v -0.3 1.4 -0.2
v -0.3 1.5 -0.2
v -0.1 0 -0.2
v -0.1 0.1 -0.2
v -0.1 0.2 -0.2
v -0.1 0.3 -0.2
v -0.1 0.7 -0.2
v -0.1 0.8 -0.2
v 0.1 0 -0.2
v 0.1 0.1 -0.2
v 0.1 0.2 -0.2
v 0.1 0.3 -0.2
v 0.1 0.7 -0.2
v 0.1 0.8 -0.2
v 0.3 0 -0.2
v 0.3 0.1 -0.2
v 0.3 0.2 -0.2
v 0.3 0.3 -0.2
v 0.3 0.6 -0.2
v 0.3 0.7 -0.2
v 0.3 1.4 -0.2
v 0.3 1.5 -0.2
v 0.4 0.3 -0.2
v 0.4 0.5 -0.2
v 0.4 0.6 -0.2
v 0.4 0.7 -0.2
v 0.5 0.3 -0.2
v 0.5 0.5 -0.2
v 0.5 0.6 -0.2
v -0.3 0.3 -0.3
v -0.3 0.4 -0.3
v -0.3 0.7 -0.3
v -0.3 0.9 -0.3
v -0.3 1 -0.3
v -0.3 1.3 -0.3
v -0.3 1.4 -0.3
v -0.2 0.8 -0.3
v -0.2 0.9 -0.3
v 0.2 0.8 -0.3
v 0.2 0.9 -0.3
v 0.3 0.3 -0.3
v 0.3 0.4 -0.3
v 0.3 0.7 -0.3
v 0.3 0.9 -0.3
v 0.3 1 -0.3
v 0.3 1.3 -0.3
v 0.3 1.4 -0.3
v -0.3 1 -0.4
v -0.3 1.3 -0.4
v 0.3 1 -0.4
v 0.3 1.3 -0.4
v -0.3 0 0.2
v -0.1 0 0.2
v 0.1 0 0.2
v 0.3 0 0.2
v -0.3 0 -0.2
v -0.1 0 -0.2
v 0.1 0 -0.2
v 0.3 0 -0.2
v -0.3 0.3 0.1
v 0.3 0.3 0.1
v -0.5 0.3 0
v -0.4 0.3 0
v -0.3 0.3 0
v -0.1 0.3 0
v 0.1 0.3 0
v 0.3 0.3 0
v 0.4 0.3 0
v 0.5 0.3 0
v -0.5 0.3 -0.2
v -0.4 0.3 -0.2
v -0.3 0.3 -0.2
v -0.1 0.3 -0.2
v 0.1 0.3 -0.2
v 0.3 0.3 -0.2
v 0.4 0.3 -0.2
v 0.5 0.3 -0.2
v -0.3 0.3 -0.3
v 0.3 0.3 -0.3
v -0.1 0.4 0
v 0.1 0.4 0
v -0.1 0.4 -0.2
v 0.1 0.4 -0.2
v -0.4 0.6 0
v -0.3 0.6 0
v 0.3 0.6 0
v 0.4 0.6 0
v -0.4 0.6 -0.2
v -0.3 0.6 -0.2
v 0.3 0.6 -0.2
v 0.4 0.6 -0.2
v -0.2 0.8 -0.1
v -0.1 0.8 -0.1
v 0.1 0.8 -0.1
v 0.2 0.8 -0.1
v -0.1 0.8 -0.2
v 0.1 0.8 -0.2
v -0.2 0.8 -0.3
v 0.2 0.8 -0.3
v -0.3 0.9 -0.1
v -0.2 0.9 -0.1
v 0.2 0.9 -0.1
v 0.3 0.9 -0.1
v -0.3 0.9 -0.3
v -0.2 0.9 -0.3
v 0.2 0.9 -0.3
v 0.3 0.9 -0.3
v -0.1 1 0.1
v 0.1 1 0.1
v -0.1 1 0
v 0.1 1 0
v -0.3 1 -0.3
v 0.3 1 -0.3
v -0.3 1 -0.4
v 0.3 1 -0.4
v -0.3 1.1 0
v -0.2 1.1 0
v 0.2 1.1 0
v 0.3 1.1 0
v -0.3 1.1 -0.1
v -0.2 1.1 -0.1
v 0.2 1.1 -0.1
v 0.3 1.1 -0.1
v -0.3 1.3 0.1
v -0.1 1.3 0.1
v 0.1 1.3 0.1
v 0.3 1.3 0.1
v -0.3 1.3 0
v -0.2 1.3 0
v -0.1 1.3 0
v 0.1 1.3 0
v 0.2 1.3 0
v 0.3 1.3 0
v -0.3 0.1 0.2
v -0.1 0.1 0.2
v 0.1 0.1 0.2
v 0.3 0.1 0.2
v -0.3 0.1 0
v -0.1 0.1 0
v 0.1 0.1 0
v 0.3 0.1 0
v -0.5 0.6 0
v -0.4 0.6 0
v 0.4 0.6 0
v 0.5 0.6 0
v -0.5 0.6 -0.2
v -0.4 0.6 -0.2
v 0.4 0.6 -0.2
v 0.5 0.6 -0.2
v -0.3 0.7 0.1
v 0.3 0.7 0.1
v -0.4 0.7 0
v -0.3 0.7 0
v -0.2 0.7 0
v 0.2 0.7 0
v 0.3 0.7 0
v 0.4 0.7 0
v -0.2 0.7 -0.1
v -0.1 0.7 -0.1
v 0.1 0.7 -0.1
v 0.2 0.7 -0.1
v -0.4 0.7 -0.2
v -0.3 0.7 -0.2
v -0.1 0.7 -0.2
v 0.1 0.7 -0.2
v 0.3 0.7 -0.2
v 0.4 0.7 -0.2
v -0.3 0.7 -0.3
v 0.3 0.7 -0.3
v -0.1 1.1 0.1
v 0.1 1.1 0.1
v -0.1 1.1 0
v 0.1 1.1 0
v -0.3 1.3 -0.3
v 0.3 1.3 -0.3
v -0.3 1.3 -0.4
v 0.3 1.3 -0.4
v -0.3 1.4 0.1
v -0.1 1.4 0.1
v 0.1 1.4 0.1
v 0.3 1.4 0.1
v -0.3 1.4 0
v -0.1 1.4 0
v 0.1 1.4 0
v 0.3 1.4 0
v -0.3 1.4 -0.2
v 0.3 1.4 -0.2
v -0.3 1.4 -0.3
v 0.3 1.4 -0.3
v -0.3 1.5 0
v 0.3 1.5 0
v -0.3 1.5 -0.1
v 0.3 1.5 -0.1
v -0.3 1.5 -0.2
v 0.3 1.5 -0.2

# faces
f 3/1/1 2/1/1 1/1/1
f 4/1/1 2/1/1 3/1/1
f 5/2/1 4/2/1 3/2/1
f 6/2/1 4/2/1 5/2/1
f 9/2/1 8/2/1 7/2/1
f 10/2/1 8/2/1 9/2/1
f 13/5/1 12/5/1 11/5/1
f 14/5/1 12/5/1 13/5/1
f 15/5/1 12/5/1 14/5/1
f 16/1/1 15/1/1 14/1/1
f 17/1/1 15/1/1 16/1/1
f 19/7/1 17/7/1 16/7/1
f 20/7/1 17/7/1 19/7/1
f 22/7/1 20/7/1 19/7/1
f 22/7/1 21/7/1 20/7/1
f 22/7/1 19/7/1 18/7/1
f 23/7/1 21/7/1 22/7/1
f 24/2/1 23/2/1 22/2/1
f 25/2/1 23/2/1 24/2/1
f 26/2/1 24/2/1 22/2/1
f 27/2/1 24/2/1 26/2/1
f 28/2/1 23/2/1 25/2/1
f 29/2/1 23/2/1 28/2/1
f 32/1/1 31/1/1 30/1/1
f 35/1/1 32/1/1 30/1/1
f 36/1/1 32/1/1 35/1/1
f 37/4/1 33/4/1 32/4/1
f 37/1/1 32/1/1 36/1/1
f 38/1/1 36/1/1 35/1/1
f 38/1/1 35/1/1 34/1/1
f 39/4/1 37/4/1 36/4/1
f 39/1/1 36/1/1 38/1/1
f 41/1/1 38/1/1 34/1/1
f 42/4/1 33/4/1 37/4/1
f 42/4/1 37/4/1 39/4/1
f 42/4/1 39/4/1 38/4/1
f 43/4/1 33/4/1 42/4/1
f 44/4/1 41/4/1 40/4/1
f 45/1/1 38/1/1 41/1/1
f 45/4/1 41/4/1 44/4/1
f 46/4/1 42/4/1 38/4/1
f 47/4/1 42/4/1 46/4/1
f 48/1/1 38/1/1 45/1/1
f 49/4/1 46/4/1 38/4/1
f 49/1/1 38/1/1 48/1/1
f 50/4/1 46/4/1 49/4/1
f 53/1/1 52/1/1 51/1/1
f 55/1/1 53/1/1 51/1/1
f 55/1/1 54/1/1 53/1/1
f 56/1/1 54/1/1 55/1/1
f 57/1/1 55/1/1 51/1/1
f 58/1/1 55/1/1 57/1/1
f 61/1/1 60/1/1 59/1/1
f 62/1/1 60/1/1 61/1/1
f 65/1/1 64/1/1 63/1/1
f 66/1/1 64/1/1 65/1/1
f 69/5/1 68/5/1 67/5/1
f 70/5/1 68/5/1 69/5/1
f 71/5/1 68/5/1 70/5/1
f 72/1/1 71/1/1 70/1/1
f 73/1/1 71/1/1 72/1/1
f 74/7/1 73/7/1 72/7/1
f 75/7/1 73/7/1 74/7/1
f 76/7/1 75/7/1 74/7/1
f 77/7/1 75/7/1 76/7/1
f 80/4/1 79/4/1 78/4/1
f 81/4/1 79/4/1 80/4/1
f 84/1/1 83/1/1 82/1/1
f 85/1/1 83/1/1 84/1/1
f 86/2/1 85/2/1 84/2/1
f 87/2/1 85/2/1 86/2/1
f 88/1/2 89/1/2 90/1/2
f 90/1/2 89/1/2 91/1/2
f 90/2/2 91/2/2 92/2/2
f 92/2/2 91/2/2 93/2/2
f 94/5/2 95/5/2 96/5/2
f 96/5/2 95/5/2 97/5/2
f 97/5/2 95/5/2 98/5/2
f 97/1/2 98/1/2 99/1/2
f 99/1/2 98/1/2 100/1/2
f 99/7/2 100/7/2 101/7/2
f 101/7/2 100/7/2 102/7/2
f 101/7/2 102/7/2 103/7/2
f 103/7/2 102/7/2 104/7/2
f 105/4/2 106/4/2 107/4/2
f 107/4/2 106/4/2 108/4/2
f 109/1/2 110/1/2 111/1/2
f 111/1/2 110/1/2 112/1/2
f 113/1/2 114/1/2 115/1/2
f 115/1/2 114/1/2 116/1/2
f 117/1/2 118/1/2 119/1/2
f 117/1/2 119/1/2 121/1/2
f 119/1/2 120/1/2 121/1/2
f 121/1/2 120/1/2 122/1/2
f 117/1/2 121/1/2 123/1/2
f 123/1/2 121/1/2 124/1/2
f 125/5/2 126/5/2 127/5/2
f 127/5/2 126/5/2 128/5/2
f 128/5/2 126/5/2 129/5/2
f 128/1/2 129/1/2 130/1/2
f 130/1/2 129/1/2 131/1/2
f 130/7/2 131/7/2 133/7/2
f 133/7/2 131/7/2 134/7/2
f 133/7/2 134/7/2 136/7/2
f 134/7/2 135/7/2 136/7/2
f 132/7/2 133/7/2 136/7/2
f 136/7/2 135/7/2 137/7/2
f 136/2/2 137/2/2 138/2/2
f 138/2/2 137/2/2 139/2/2
f 136/2/2 138/2/2 140/2/2
f 140/2/2 138/2/2 141/2/2
f 139/2/2 137/2/2 142/2/2
f 142/2/2 137/2/2 143/2/2
f 144/1/2 145/1/2 146/1/2
f 144/1/2 146/1/2 149/1/2
f 149/1/2 146/1/2 150/1/2
f 146/4/2 147/4/2 151/4/2
f 150/1/2 146/1/2 151/1/2
f 149/1/2 150/1/2 152/1/2
f 148/1/2 149/1/2 152/1/2
f 150/4/2 151/4/2 153/4/2
f 152/1/2 150/1/2 153/1/2
f 148/1/2 152/1/2 155/1/2
f 151/4/2 147/4/2 156/4/2
f 153/4/2 151/4/2 156/4/2
f 152/4/2 153/4/2 156/4/2
f 156/4/2 147/4/2 157/4/2
f 154/4/2 155/4/2 158/4/2
f 155/1/2 152/1/2 159/1/2
f 158/4/2 155/4/2 159/4/2
f 152/4/2 156/4/2 160/4/2
f 160/4/2 156/4/2 161/4/2
f 159/1/2 152/1/2 162/1/2
f 152/4/2 160/4/2 163/4/2
f 162/1/2 152/1/2 163/1/2
f 163/4/2 160/4/2 164/4/2
f 165/2/2 166/2/2 167/2/2
f 167/2/2 166/2/2 168/2/2
f 169/1/2 170/1/2 171/1/2
f 171/1/2 170/1/2 172/1/2
f 171/2/2 172/2/2 173/2/2
f 173/2/2 172/2/2 174/2/2
f 177/5/3 176/5/3 175/5/3
f 178/5/3 176/5/3 177/5/3
f 181/5/3 180/5/3 179/5/3
f 182/5/3 180/5/3 181/5/3
f 190/4/3 187/4/3 186/4/3
f 191/4/3 187/4/3 190/4/3
f 192/1/3 189/1/3 188/1/3
f 193/1/3 189/1/3 192/1/3
f 196/7/3 184/7/3 183/7/3
f 197/2/3 185/2/3 184/2/3
f 197/7/3 184/7/3 196/7/3
f 198/2/3 185/2/3 197/2/3
f 199/4/3 195/4/3 194/4/3
f 200/4/3 195/4/3 199/4/3
f 204/1/3 202/1/3 201/1/3
f 205/2/3 203/2/3 202/2/3
f 205/1/3 202/1/3 204/1/3
f 206/2/3 203/2/3 205/2/3
f 211/2/3 207/2/3 206/2/3
f 212/2/3 207/2/3 211/2/3
f 218/1/3 214/1/3 213/1/3
f 219/1/3 214/1/3 218/1/3
f 220/1/3 214/1/3 219/1/3
f 221/1/3 209/1/3 208/1/3
f 222/7/3 210/7/3 209/7/3
f 222/1/3 209/1/3 221/1/3
f 223/7/3 210/7/3 222/7/3
f 224/1/3 218/1/3 217/1/3
f 224/1/3 219/1/3 218/1/3
f 225/1/3 219/1/3 224/1/3
f 226/1/3 219/1/3 225/1/3
f 227/1/3 219/1/3 226/1/3
f 228/6/3 220/6/3 219/6/3
f 228/1/3 219/1/3 227/1/3
f 229/6/3 220/6/3 228/6/3
f 230/1/3 216/1/3 215/1/3
f 234/1/3 224/1/3 217/1/3
f 234/8/3 225/8/3 224/8/3
f 235/1/3 226/1/3 225/1/3
f 235/8/3 225/8/3 234/8/3
f 236/1/3 226/1/3 235/1/3
f 237/1/3 229/1/3 228/1/3
f 237/1/3 228/1/3 227/1/3
f 237/1/3 230/1/3 229/1/3
f 238/1/3 230/1/3 237/1/3
f 239/1/3 230/1/3 238/1/3
f 240/1/3 216/1/3 230/1/3
f 240/1/3 230/1/3 239/1/3
f 241/1/3 236/1/3 235/1/3
f 241/1/3 235/1/3 234/1/3
f 241/1/3 238/1/3 237/1/3
f 241/1/3 237/1/3 236/1/3
f 241/1/3 234/1/3 217/1/3
f 242/1/3 238/1/3 241/1/3
f 243/6/3 239/6/3 238/6/3
f 243/1/3 238/1/3 242/1/3
f 244/6/3 239/6/3 243/6/3
f 245/1/3 232/1/3 231/1/3
f 246/7/3 233/7/3 232/7/3
f 246/1/3 232/1/3 245/1/3
f 247/7/3 233/7/3 246/7/3
f 250/1/3 244/1/3 243/1/3
f 250/1/3 243/1/3 242/1/3
f 251/1/3 244/1/3 250/1/3
f 252/1/3 216/1/3 240/1/3
f 253/1/3 216/1/3 252/1/3
f 256/2/3 249/2/3 248/2/3
f 257/2/3 249/2/3 256/2/3
f 258/1/3 255/1/3 254/1/3
f 259/2/3 256/2/3 255/2/3
f 259/1/3 255/1/3 258/1/3
f 260/2/3 256/2/3 259/2/3
f 263/1/3 262/1/3 261/1/3
f 264/1/3 262/1/3 263/1/3
f 267/1/3 266/1/3 265/1/3
f 268/1/3 266/1/3 267/1/3
f 271/7/3 270/7/3 269/7/3
f 272/7/3 270/7/3 271/7/3
f 273/7/4 274/7/4 275/7/4
f 275/7/4 274/7/4 276/7/4
f 277/1/4 278/1/4 279/1/4
f 279/1/4 278/1/4 280/1/4
f 281/1/4 282/1/4 283/1/4
f 283/1/4 282/1/4 284/1/4
f 285/1/4 286/1/4 288/1/4
f 286/2/4 287/2/4 289/2/4
f 288/1/4 286/1/4 289/1/4
f 289/2/4 287/2/4 290/2/4
f 290/2/4 291/2/4 296/2/4
f 296/2/4 291/2/4 297/2/4
f 292/5/4 293/5/4 300/5/4
f 293/1/4 294/1/4 301/1/4
f 300/5/4 293/5/4 301/5/4
f 294/7/4 295/7/4 302/7/4
f 301/1/4 294/1/4 302/1/4
f 302/7/4 295/7/4 303/7/4
f 304/1/4 305/1/4 310/1/4
f 310/1/4 305/1/4 311/1/4
f 306/5/4 307/5/4 312/5/4
f 307/1/4 308/1/4 313/1/4
f 312/5/4 307/5/4 313/5/4
f 308/7/4 309/7/4 314/7/4
f 313/1/4 308/1/4 314/1/4
f 314/7/4 309/7/4 315/7/4
f 298/4/4 299/4/4 318/4/4
f 318/4/4 299/4/4 319/4/4
f 316/2/4 317/2/4 322/2/4
f 322/2/4 317/2/4 323/2/4
f 320/1/4 321/1/4 324/1/4
f 321/2/4 322/2/4 325/2/4
f 324/1/4 321/1/4 325/1/4
f 325/2/4 322/2/4 326/2/4
f 330/1/4 331/1/4 335/1/4
f 334/1/4 335/1/4 336/1/4
f 335/1/4 331/1/4 337/1/4
f 336/1/4 335/1/4 337/1/4
f 327/7/4 328/7/4 338/7/4
f 328/2/4 329/2/4 339/2/4
f 338/7/4 328/7/4 339/7/4
f 339/2/4 329/2/4 340/2/4
f 337/1/4 331/1/4 341/1/4
f 341/1/4 331/1/4 342/1/4
f 332/4/4 333/4/4 343/4/4
f 343/4/4 333/4/4 344/4/4
f 345/4/4 346/4/4 347/4/4
f 347/4/4 346/4/4 348/4/4
f 353/5/5 350/5/5 349/5/5
f 354/5/5 350/5/5 353/5/5
f 355/5/5 352/5/5 351/5/5
f 356/5/5 352/5/5 355/5/5
f 361/7/5 358/7/5 357/7/5
f 362/7/5 358/7/5 361/7/5
f 363/7/5 358/7/5 362/7/5
f 364/7/5 358/7/5 363/7/5
f 367/1/5 360/1/5 359/1/5
f 368/1/5 360/1/5 367/1/5
f 373/1/5 366/1/5 365/1/5
f 374/1/5 366/1/5 373/1/5
f 375/7/5 372/7/5 371/7/5
f 375/7/5 370/7/5 369/7/5
f 375/7/5 371/7/5 370/7/5
f 376/7/5 372/7/5 375/7/5
f 379/7/5 378/7/5 377/7/5
f 380/7/5 378/7/5 379/7/5
f 385/2/5 382/2/5 381/2/5
f 386/2/5 382/2/5 385/2/5
f 387/2/5 384/2/5 383/2/5
f 388/2/5 384/2/5 387/2/5
f 393/1/5 390/1/5 389/1/5
f 394/1/5 392/1/5 391/1/5
f 395/1/5 393/1/5 389/1/5
f 395/1/5 394/1/5 393/1/5
f 396/1/5 392/1/5 394/1/5
f 396/1/5 394/1/5 395/1/5
f 401/1/5 398/1/5 397/1/5
f 402/1/5 398/1/5 401/1/5
f 403/1/5 400/1/5 399/1/5
f 404/1/5 400/1/5 403/1/5
f 407/1/5 406/1/5 405/1/5
f 408/1/5 406/1/5 407/1/5
f 411/4/5 410/4/5 409/4/5
f 412/4/5 410/4/5 411/4/5
f 417/1/5 414/1/5 413/1/5
f 418/1/5 414/1/5 417/1/5
f 419/1/5 416/1/5 415/1/5
f 420/1/5 416/1/5 419/1/5
f 425/4/5 422/4/5 421/4/5
f 426/4/5 422/4/5 425/4/5
f 427/4/5 422/4/5 426/4/5
f 428/4/5 424/4/5 423/4/5
f 429/4/5 424/4/5 428/4/5
f 430/4/5 424/4/5 429/4/5
f 431/5/6 432/5/6 435/5/6
f 435/5/6 432/5/6 436/5/6
f 433/5/6 434/5/6 437/5/6
f 437/5/6 434/5/6 438/5/6
f 439/2/6 440/2/6 443/2/6
f 443/2/6 440/2/6 444/2/6
f 441/2/6 442/2/6 445/2/6
f 445/2/6 442/2/6 446/2/6
f 447/2/6 448/2/6 450/2/6
f 450/2/6 448/2/6 451/2/6
f 451/2/6 448/2/6 452/2/6
f 452/2/6 448/2/6 453/2/6
f 449/2/6 450/2/6 455/2/6
f 450/2/6 451/2/6 455/2/6
f 453/2/6 454/2/6 458/2/6
f 452/2/6 453/2/6 458/2/6
f 455/2/6 456/2/6 459/2/6
f 449/2/6 455/2/6 459/2/6
f 459/2/6 456/2/6 460/2/6
f 460/2/6 456/2/6 461/2/6
f 457/2/6 458/2/6 462/2/6
f 458/2/6 454/2/6 463/2/6
f 462/2/6 458/2/6 463/2/6
f 463/2/6 454/2/6 464/2/6
f 460/2/6 461/2/6 465/2/6
f 461/2/6 462/2/6 465/2/6
f 462/2/6 463/2/6 465/2/6
f 465/2/6 463/2/6 466/2/6
f 467/1/6 468/1/6 469/1/6
f 469/1/6 468/1/6 470/1/6
f 471/4/6 472/4/6 473/4/6
f 473/4/6 472/4/6 474/4/6
f 475/4/6 476/4/6 479/4/6
f 479/4/6 476/4/6 480/4/6
f 477/4/6 478/4/6 481/4/6
f 481/4/6 478/4/6 482/4/6
f 483/4/6 484/4/6 485/4/6
f 485/4/6 484/4/6 486/4/6
f 487/1/6 488/1/6 489/1/6
f 489/1/6 488/1/6 490/1/6
f 489/4/6 490/4/6 491/4/6
f 491/4/6 490/4/6 492/4/6
